<?xml version="1.0" standalone="no"?>
<!DOCTYPE svg PUBLIC "-//W3C//DTD SVG 20010904//EN"
 "http://www.w3.org/TR/2001/REC-SVG-20010904/DTD/svg10.dtd">
<svg version="1.0" xmlns="http://www.w3.org/2000/svg"
 width="182.000000pt" height="170.000000pt" viewBox="0 0 182.000000 170.000000"
 preserveAspectRatio="xMidYMid meet">

<g transform="translate(0.000000,170.000000) scale(0.100000,-0.100000)"
fill="#000000" stroke="none">
<path d="M1008 1489 c-10 -5 -23 -19 -29 -30 -24 -45 52 -94 89 -57 20 20 14
65 -10 82 -26 19 -27 19 -50 5z"/>
<path d="M1158 1488 c-32 -25 -23 -92 14 -104 l21 -6 -23 -13 c-13 -7 -27 -21
-31 -31 -8 -25 8 -71 28 -78 13 -5 12 -9 -5 -24 -32 -27 -33 -71 -1 -100 17
-17 18 -20 4 -26 -40 -15 -34 -99 8 -112 l22 -7 -23 -8 c-40 -15 -46 -87 -9
-111 22 -14 64 -8 80 10 30 33 13 102 -25 102 -6 0 1 9 16 21 17 13 26 30 26
49 0 29 -22 60 -42 60 -6 0 1 9 16 21 17 13 26 30 26 49 0 29 -22 60 -42 60
-6 0 1 9 16 21 17 13 26 30 26 49 0 29 -22 60 -42 60 -6 0 1 9 16 21 30 24 35
69 10 93 -19 19 -64 21 -86 4z"/>
<path d="M847 1474 c-4 -4 -7 -20 -7 -35 0 -22 6 -30 25 -35 33 -8 57 12 53
45 -2 21 -9 27 -33 29 -17 2 -34 0 -38 -4z"/>
<path d="M722 1443 c2 -22 8 -28 28 -28 20 0 26 6 28 28 3 24 0 27 -28 27 -28
0 -31 -3 -28 -27z"/>
<path d="M620 1440 c0 -13 7 -20 20 -20 13 0 20 7 20 20 0 13 -7 20 -20 20
-13 0 -20 -7 -20 -20z"/>
<path d="M1008 1359 c-10 -5 -23 -19 -29 -30 -24 -45 52 -94 89 -57 20 20 14
65 -10 82 -26 19 -27 19 -50 5z"/>
<path d="M847 1344 c-4 -4 -7 -20 -7 -35 0 -22 6 -30 25 -35 33 -8 57 12 53
45 -2 21 -9 27 -33 29 -17 2 -34 0 -38 -4z"/>
<path d="M722 1313 c2 -22 8 -28 28 -28 20 0 26 6 28 28 3 24 0 27 -28 27 -28
0 -31 -3 -28 -27z"/>
<path d="M620 1310 c0 -13 7 -20 20 -20 13 0 20 7 20 20 0 13 -7 20 -20 20
-13 0 -20 -7 -20 -20z"/>
<path d="M1004 1232 c-24 -16 -33 -48 -21 -73 24 -47 97 -32 97 20 0 43 -44
75 -76 53z"/>
<path d="M852 1218 c-7 -7 -12 -25 -12 -40 0 -21 6 -29 25 -34 31 -8 55 10 55
42 0 35 -44 56 -68 32z"/>
<path d="M722 1183 c2 -22 8 -28 28 -28 20 0 26 6 28 28 3 24 0 27 -28 27 -28
0 -31 -3 -28 -27z"/>
<path d="M620 1180 c0 -13 7 -20 20 -20 13 0 20 7 20 20 0 13 -7 20 -20 20
-13 0 -20 -7 -20 -20z"/>
<path d="M1004 1102 c-24 -16 -33 -48 -21 -73 24 -47 97 -32 97 20 0 43 -44
75 -76 53z"/>
<path d="M852 1088 c-7 -7 -12 -25 -12 -40 0 -21 6 -29 25 -34 31 -8 55 10 55
42 0 35 -44 56 -68 32z"/>
<path d="M732 1081 c-8 -4 -12 -19 -10 -32 2 -18 9 -24 28 -24 19 0 26 6 28
24 3 20 -11 41 -28 41 -3 0 -11 -4 -18 -9z"/>
<path d="M627 1074 c-16 -16 -7 -44 14 -44 15 0 20 5 17 22 -3 22 -19 33 -31
22z"/>
<path d="M1004 972 c-24 -16 -33 -48 -21 -73 24 -47 97 -32 97 20 0 43 -44 75
-76 53z"/>
<path d="M850 956 c-16 -20 -9 -56 13 -70 39 -24 79 44 41 71 -23 17 -39 16
-54 -1z"/>
<path d="M732 951 c-8 -4 -12 -19 -10 -32 2 -18 9 -24 28 -24 19 0 26 6 28 24
3 20 -11 41 -28 41 -3 0 -11 -4 -18 -9z"/>
<path d="M627 944 c-16 -16 -7 -44 14 -44 15 0 20 5 17 22 -3 22 -19 33 -31
22z"/>
<path d="M205 676 c-86 -38 -95 -170 -16 -223 44 -30 108 -31 145 -2 22 17 26
28 26 69 0 39 -4 52 -19 60 -28 15 -67 12 -85 -5 -19 -19 -10 -45 15 -45 12 0
19 -7 19 -20 0 -39 -73 -19 -90 26 -22 57 34 107 93 83 26 -11 31 -10 43 6 12
17 12 22 -4 38 -25 24 -89 31 -127 13z"/>
<path d="M434 604 c-59 -29 -71 -98 -25 -145 60 -60 156 -23 156 60 0 72 -69
117 -131 85z m62 -58 c15 -12 17 -18 8 -33 -15 -24 -58 -24 -62 0 -4 18 14 47
27 47 4 0 16 -6 27 -14z"/>
<path d="M896 613 c-3 -3 -24 -6 -48 -7 l-43 -1 0 -85 c0 -84 0 -85 25 -85 23
0 25 4 28 50 4 58 17 78 45 69 21 -7 37 9 37 37 0 16 -33 32 -44 22z"/>
<path d="M597 603 c-15 -14 -6 -99 12 -129 21 -34 61 -50 90 -35 12 7 21 7 29
-1 6 -6 18 -8 26 -5 13 5 16 24 16 92 l0 86 -27 -3 c-26 -3 -28 -7 -31 -55 -5
-89 -62 -81 -62 8 0 45 -2 49 -23 49 -13 0 -27 -3 -30 -7z"/>
<path d="M974 585 c-32 -32 -33 -93 -1 -123 27 -25 72 -38 81 -23 5 7 12 7 25
-1 10 -6 26 -8 35 -5 13 5 16 22 16 91 l0 84 -66 0 c-57 0 -70 -3 -90 -23z
m85 -48 c15 -19 -9 -50 -32 -41 -17 6 -23 35 -10 47 10 11 30 8 42 -6z"/>
<path d="M1162 522 c3 -85 3 -87 28 -87 23 0 25 4 30 55 5 51 7 55 30 55 23 0
25 -4 30 -55 5 -51 7 -55 30 -55 23 0 25 4 28 49 4 54 -12 102 -37 115 -9 5
-44 9 -79 9 l-63 0 3 -86z"/>
<path d="M1389 584 c-51 -54 -11 -150 59 -142 25 3 32 1 29 -11 -2 -12 -13
-15 -45 -13 -31 2 -44 -2 -49 -14 -16 -43 75 -64 124 -27 27 19 28 24 31 125
l3 106 -65 0 c-55 0 -67 -3 -87 -24z m86 -59 c0 -22 -31 -33 -47 -17 -17 17
-1 44 24 40 15 -2 23 -10 23 -23z"/>
<path d="M1594 585 c-32 -32 -33 -93 -1 -123 27 -25 72 -38 81 -23 5 7 12 7
25 -1 10 -6 26 -8 35 -5 14 6 16 20 14 89 l-3 83 -63 2 c-55 2 -66 0 -88 -22z
m85 -48 c15 -19 -9 -50 -32 -41 -17 6 -23 35 -10 47 10 11 30 8 42 -6z"/>
<path d="M410 245 c0 -8 -6 -12 -13 -9 -18 7 -41 -22 -33 -41 3 -9 18 -15 36
-15 28 0 30 2 30 40 0 22 -4 40 -10 40 -5 0 -10 -7 -10 -15z m-2 -37 c-6 -18
-28 -21 -28 -4 0 9 7 16 16 16 9 0 14 -5 12 -12z"/>
<path d="M550 257 c0 -4 8 -23 18 -41 l19 -35 17 36 c18 38 15 59 -4 23 l-11
-21 -19 23 c-11 13 -19 20 -20 15z"/>
<path d="M880 218 c0 -24 4 -38 8 -32 4 6 16 14 27 19 19 8 19 9 -2 12 -28 5
-30 23 -3 23 11 0 20 5 20 10 0 6 -11 10 -25 10 -23 0 -25 -4 -25 -42z"/>
<path d="M1320 250 c0 -5 5 -10 10 -10 6 0 10 -13 10 -30 0 -16 5 -30 10 -30
6 0 10 14 10 30 0 17 5 30 10 30 6 0 10 5 10 10 0 6 -13 10 -30 10 -16 0 -30
-4 -30 -10z"/>
<path d="M1510 244 c0 -8 -4 -13 -9 -10 -4 3 -16 0 -25 -7 -25 -19 -10 -47 25
-47 27 0 29 3 29 40 0 22 -4 40 -10 40 -5 0 -10 -7 -10 -16z m0 -40 c0 -9 -5
-14 -12 -12 -18 6 -21 28 -4 28 9 0 16 -7 16 -16z"/>
<path d="M205 229 c-9 -27 19 -59 46 -52 26 7 24 20 -3 19 -17 -1 -23 5 -23
19 0 14 6 20 23 19 12 0 22 3 22 8 0 4 -13 8 -29 8 -21 0 -32 -6 -36 -21z"/>
<path d="M1028 238 c-9 -27 4 -58 26 -58 14 0 17 3 8 8 -7 5 -11 19 -10 32 3
24 -17 40 -24 18z"/>
<path d="M296 227 c-25 -19 -10 -49 23 -45 32 4 40 33 13 47 -14 7 -24 7 -36
-2z m34 -23 c0 -9 -5 -14 -12 -12 -18 6 -21 28 -4 28 9 0 16 -7 16 -16z"/>
<path d="M454 226 c-25 -19 -11 -46 23 -45 l28 1 -25 8 c-24 8 -24 8 -2 9 24
1 30 26 8 34 -8 3 -22 0 -32 -7z"/>
<path d="M636 225 c-20 -21 -9 -45 20 -45 29 0 41 24 24 45 -16 19 -25 19 -44
0z m34 -21 c0 -17 -22 -14 -28 4 -2 7 3 12 12 12 9 0 16 -7 16 -16z"/>
<path d="M711 213 c-1 -30 2 -33 29 -33 25 0 30 4 30 24 0 32 -18 43 -22 14
-4 -29 -21 -26 -30 4 -5 20 -6 18 -7 -9z"/>
<path d="M790 206 l0 -31 15 29 c18 35 18 33 0 33 -10 0 -15 -10 -15 -31z"/>
<path d="M950 211 c0 -28 3 -31 30 -31 27 0 30 3 30 30 0 17 -4 30 -10 30 -5
0 -10 -11 -10 -25 0 -14 -4 -25 -10 -25 -5 0 -10 9 -10 19 0 11 -4 23 -10 26
-6 4 -10 -7 -10 -24z"/>
<path d="M1082 213 c2 -22 9 -29 31 -31 24 -3 27 0 27 28 0 18 -4 29 -10 25
-5 -3 -10 -15 -10 -26 0 -10 -4 -19 -10 -19 -5 0 -10 11 -10 25 0 14 -5 25
-11 25 -6 0 -9 -12 -7 -27z"/>
<path d="M1160 209 c0 -16 5 -29 10 -29 6 0 10 9 10 20 0 11 5 20 10 20 19 0
10 16 -10 17 -16 1 -20 -4 -20 -28z"/>
<path d="M1220 225 c-17 -21 -5 -45 22 -44 22 0 22 1 3 9 -19 8 -19 9 3 9 25
1 28 11 10 29 -16 16 -23 15 -38 -3z"/>
<path d="M1402 231 c-21 -13 -10 -46 16 -49 27 -4 40 22 22 43 -14 17 -20 18
-38 6z m28 -27 c0 -9 -5 -14 -12 -12 -18 6 -21 28 -4 28 9 0 16 -7 16 -16z"/>
<path d="M1555 230 c-3 -5 2 -10 12 -11 14 0 13 -2 -5 -10 -28 -11 -20 -29 14
-29 19 0 24 5 24 24 0 13 -7 27 -16 30 -21 8 -22 8 -29 -4z"/>
<path d="M1625 206 c13 -32 13 -35 -3 -39 -13 -4 -11 -5 6 -6 12 0 22 1 22 3
0 2 7 20 15 40 8 20 11 36 6 36 -5 0 -13 -10 -17 -22 l-7 -23 -10 23 c-16 36
-27 25 -12 -12z"/>
</g>
</svg>
