<?xml version="1.0" encoding="UTF-8"?>
<svg version="1.1" xmlns="http://www.w3.org/2000/svg" width="48" height="48">
<path d="M0 0 C4.68796317 2.8950501 8.77605467 6.42344712 10.234375 11.89453125 C11.16656452 18.74158704 11.3930195 24.99387098 7.671875 31.01953125 C3.66347868 35.99068326 0.31000422 38.47580101 -6.0078125 39.3359375 C-13.1275177 39.69575056 -18.34453314 39.19135672 -23.98828125 34.640625 C-29.08369757 29.63479842 -30.03494232 26.05750776 -30.390625 19.01953125 C-30.17838344 12.13997715 -28.58962241 7.80486419 -23.765625 2.89453125 C-17.29271618 -2.6344117 -7.84970384 -3.13766411 0 0 Z " fill="#4C8CD6" transform="translate(33.765625,5.10546875)"/>
<path d="M0 0 C5.51046034 1.08772588 8.50273008 4.12420044 12 8.4375 C14.13118915 13.52867409 13.55881548 17.70304925 12 22.8125 C9.75398177 26.78046553 7.86344317 28.55482032 4.125 31.125 C3.135 31.125 2.145 31.125 1.125 31.125 C1.29 30.609375 1.455 30.09375 1.625 29.5625 C2.2987141 26.27814374 2.42372452 23.47071457 2.125 20.125 C0.15451823 17.57067179 -1.89027425 16.11469876 -4.5625 14.3125 C-6.875 12.125 -6.875 12.125 -7.9375 8.6875 C-7.875 5.125 -7.875 5.125 -6.4375 2.125 C-3.875 0.125 -3.875 0.125 0 0 Z " fill="#E97C0B" transform="translate(26.875,7.875)"/>
<path d="M0 0 C4.68796317 2.8950501 8.77605467 6.42344712 10.234375 11.89453125 C11.16656452 18.74158704 11.3930195 24.99387098 7.671875 31.01953125 C3.66347868 35.99068326 0.31000422 38.47580101 -6.0078125 39.3359375 C-13.1275177 39.69575056 -18.34453314 39.19135672 -23.98828125 34.640625 C-29.08369757 29.63479842 -30.03494232 26.05750776 -30.390625 19.01953125 C-30.17838344 12.13997715 -28.58962241 7.80486419 -23.765625 2.89453125 C-17.29271618 -2.6344117 -7.84970384 -3.13766411 0 0 Z M-24.640625 7.95703125 C-28.2783932 12.98571082 -28.56118736 17.86077174 -27.765625 23.89453125 C-25.65652311 29.03163833 -22.412424 32.83742664 -17.765625 35.89453125 C-12.76240602 37.56227091 -7.51950121 37.91413248 -2.5078125 36.05859375 C2.5773189 33.17766379 6.1554687 29.39357373 8.234375 23.89453125 C9.11437557 18.92603245 8.90526051 14.53332648 6.546875 10.01953125 C3.41205117 5.78328283 0.07063648 2.96469782 -4.765625 0.89453125 C-13.14073538 -0.31193356 -19.00472499 1.51829649 -24.640625 7.95703125 Z " fill="#327CD1" transform="translate(33.765625,5.10546875)"/>
<path d="M0 0 C5.01541264 3.00171976 8.81734252 6.38952755 10.70703125 12.05859375 C11.48335006 18.30241505 11.05599981 23.12728003 7.3125 28.296875 C3.11135436 32.90689126 -1.0613228 35.32456104 -7.35546875 35.62109375 C-13.53758623 35.2792255 -17.36559742 33.14223843 -21.60546875 28.55859375 C-25.35270267 23.0071361 -26.11633998 18.72790072 -25.29296875 12.05859375 C-23.46732479 6.66464567 -19.78168283 3.30574862 -15.29296875 0.05859375 C-10.28651725 -1.61022342 -4.9633286 -2.03775501 0 0 Z M-10.54296875 3.05859375 C-11.12046875 3.71859375 -11.69796875 4.37859375 -12.29296875 5.05859375 C-11.96296875 4.06859375 -11.63296875 3.07859375 -11.29296875 2.05859375 C-15.21410444 2.63950274 -17.47760023 4.31541416 -20.29296875 7.05859375 C-23.21796608 12.30341655 -23.94365661 16.20240302 -23.29296875 22.05859375 C-20.72007374 27.01379896 -17.31062949 30.54976338 -12.29296875 33.05859375 C-9.29296875 33.30859375 -9.29296875 33.30859375 -6.29296875 33.05859375 C-5.63296875 32.39859375 -4.97296875 31.73859375 -4.29296875 31.05859375 C-3.66648437 31.23519531 -3.04 31.41179688 -2.39453125 31.59375 C-0.26557398 32.30539042 -0.26557398 32.30539042 1.55859375 31.0546875 C6.78799636 26.45880283 8.30647537 23.16290182 9.20703125 16.18359375 C9.05821332 11.01465104 6.35717015 7.5330148 2.70703125 4.05859375 C-1.57295155 1.30651879 -6.36424327 -0.6558289 -10.54296875 3.05859375 Z " fill="#F4ECE3" transform="translate(31.29296875,6.94140625)"/>
<path d="M0 0 C6.52233125 0.33736196 9.41285141 1.30617353 14 6 C17.49050252 10.3049531 17.27093244 13.67166206 17 19 C16.01 19 15.02 19 14 19 C13.896875 18.401875 13.79375 17.80375 13.6875 17.1875 C12.88160618 14.62329239 11.9209073 13.84976258 10 12 C9.01 10.4221875 9.01 10.4221875 8 8.8125 C7.34 7.884375 6.68 6.95625 6 6 C5.01 6 4.02 6 3 6 C3.515625 6.928125 4.03125 7.85625 4.5625 8.8125 C6 12 6 12 5 15 C4.01 14.67 3.02 14.34 2 14 C0.30737336 9.619084 -0.30153263 4.67375574 0 0 Z " fill="#F09E2B" transform="translate(23,8)"/>
<path d="M0 0 C0.99 0.33 1.98 0.66 3 1 C3.33 1.99 3.66 2.98 4 4 C3.67 4.33 3.34 4.66 3 5 C3.639375 5.5775 4.27875 6.155 4.9375 6.75 C6.98223868 8.98062401 7.58205199 10.07436391 8 13 C9.32 13 10.64 13 12 13 C12.33 13.66 12.66 14.32 13 15 C13.99 15 14.98 15 16 15 C16 16.65 16 18.3 16 20 C10.68098483 20.50657287 8.13515188 19.32610043 4 16 C-0.71599563 10.64670766 -1.22091268 7.95874927 -1 1 C-0.67 0.67 -0.34 0.34 0 0 Z " fill="#5E9ADE" transform="translate(9,20)"/>
<path d="M0 0 C0.6084375 0.1959375 1.216875 0.391875 1.84375 0.59375 C0.2040625 1.6146875 0.2040625 1.6146875 -1.46875 2.65625 C-5.32558028 5.43566616 -6.81977232 7.95538628 -8.15625 12.59375 C-8.84368117 17.02768106 -8.53171265 19.97188998 -6.15625 23.90625 C-5.49625 24.793125 -4.83625 25.68 -4.15625 26.59375 C-4.15625 27.58375 -4.15625 28.57375 -4.15625 29.59375 C-10.76115046 23.33647588 -10.76115046 23.33647588 -11.4921875 18.26171875 C-11.58931087 12.09438448 -10.84920527 8.58423009 -7.15625 3.59375 C-2.99771341 -0.56478659 -2.99771341 -0.56478659 0 0 Z " fill="#EEEEEE" transform="translate(17.15625,8.40625)"/>
<path d="M0 0 C1.53582987 2.83836913 2.48730509 5.47675522 3.1875 8.625 C3.45626953 9.78902344 3.45626953 9.78902344 3.73046875 10.9765625 C4 13 4 13 3 15 C-0.5173624 12.74528051 -1.83246477 11.58637329 -3 7.5 C-3 3.74059534 -2.60531327 2.60531327 0 0 Z " fill="#ED8C07" transform="translate(22,9)"/>
<path d="M0 0 C4.47851553 0.89570311 5.77175056 1.25000973 9 4 C8.67 4.66 8.34 5.32 8 6 C6.35 5.01 4.7 4.02 3 3 C3.515625 4.093125 4.03125 5.18625 4.5625 6.3125 C6 10 6 10 5 13 C4.01 12.67 3.02 12.34 2 12 C1.34 8.04 0.68 4.08 0 0 Z " fill="#F6C989" transform="translate(23,10)"/>
<path d="M0 0 C0.33 0.99 0.66 1.98 1 3 C-3.77011494 9.67816092 -3.77011494 9.67816092 -8 11 C-10.75 11.125 -10.75 11.125 -13 11 C-11.04297985 9.6953199 -9.06417543 8.42257633 -7.0625 7.1875 C-4.06267968 5.0447712 -2.14579544 2.97110138 0 0 Z " fill="#F9F2ED" transform="translate(39,30)"/>
<path d="M0 0 C-0.28875 0.515625 -0.5775 1.03125 -0.875 1.5625 C-2.28780027 4.62356725 -3.1248517 7.74944918 -4 11 C-4.33 11 -4.66 11 -5 11 C-5.07427838 7.65747276 -5.06546953 5.1964086 -4 2 C-4.99 1.34 -5.98 0.68 -7 0 C-3.86650268 -1.04449911 -3.01031744 -0.93423645 0 0 Z " fill="#DFE0DC" transform="translate(23,7)"/>
<path d="M0 0 C0.33 0 0.66 0 1 0 C1.05395478 1.62463842 1.09277195 3.24978541 1.125 4.875 C1.14820313 5.77992187 1.17140625 6.68484375 1.1953125 7.6171875 C1 10 1 10 -1 12 C-2.45606519 7.47907032 -1.27032841 4.48351204 0 0 Z " fill="#F0E6DC" transform="translate(41,19)"/>
<path d="M0 0 C0.99 0.33 1.98 0.66 3 1 C1.87548273 3.9719385 0.77706209 6.33440687 -1 9 C-1.09765625 2.84765625 -1.09765625 2.84765625 -1 1 C-0.67 0.67 -0.34 0.34 0 0 Z " fill="#5291DB" transform="translate(9,20)"/>
</svg>
